<svg version="1.2" xmlns="http://www.w3.org/2000/svg" viewBox="20.509275551757074 61.1281484088281 555.9514353225076 118.75370770700314" width="557" height="119">
	<title>LogoWhite</title>
	<style>
		.s0 { fill: #ffffff } 
	</style>
	<g id="Layer 1">
		<g>
			<g>
				<path class="s0" d="m62.7 93.2h-16.3v3.2h16.3c7.1 0 12.5 2.2 15.8 6.6 3.1 3.9 4.6 9.9 4.6 17.5 0 7.2-1.9 13.1-5.6 17.4-3.9 4.4-9.4 6.6-16.4 6.6h-14.7v3.3h14.7c7.9 0 14.2-2.6 18.7-7.8 4.3-4.8 6.5-11.4 6.5-19.4 0-8.3-1.8-15-5.4-19.6-4.1-5.2-10.2-7.8-18.2-7.8z"/>
				<path class="s0" d="m114.4 93.2h-3.3l-22 54.6h3.6l7-17.5h26.1l7 17.5h3.6l-21.9-54.4zm10.1 33.9h-23.6l11.9-29.6z"/>
				<path class="s0" d="m154.4 143.7l-19-50.3-0.1-0.2h-3.7l21 54.6h3.6l20.7-54.2 0.2-0.4h-3.7z"/>
				<path class="s0" d="m187.3 93.2h3.2v54.6h-3.2z"/>
				<path class="s0" d="m233.2 122.3c-2.5-1.6-6.7-3.1-12.9-4.8-5.1-1.4-8.5-2.5-10.2-3.4-3.4-1.7-5.1-4.2-5.1-7.3 0-3.5 1.3-6 4.1-7.9 2.7-1.7 6.3-2.6 10.7-2.6q6.9 0 10.8 3.6 3.9 3.6 4.5 10.3l0.1 0.6h3.1v-0.8c-0.5-5.2-2.3-9.3-5.6-12.3-3.2-3-7.6-4.5-12.9-4.5-4.9 0-9 1-12.3 3.1q-5.7 3.6-5.7 10.5c0 4.3 2.1 7.5 6.1 9.8 2.1 1.2 6.2 2.5 11.7 4 5.8 1.5 9.6 2.9 11.7 4.2 3.4 2.1 5 4.9 5 8.7 0 3.4-1.4 6-4.3 8-3 2.1-6.9 3.1-11.7 3.1-4.8 0-8.5-1.2-11.2-3.6-3-2.7-4.8-6.6-5.2-11.9l-0.1-0.6h-3v0.7c0.5 6.3 2.5 10.9 6.1 14.1q5.1 4.5 13.5 4.5c5.4 0 9.9-1.2 13.4-3.6 3.8-2.6 5.7-6.2 5.7-10.7-0.1-4.8-2.2-8.6-6.3-11.2z"/>
				<path class="s0" d="m249.7 93.2h3.3v54.6h-3.3z"/>
				<path class="s0" d="m288.4 93.2h-3.4l-21.9 54.6h3.6l7-17.5h26l6.9 17.3 0.1 0.2h3.6l-21.9-54.4zm10.1 33.9h-23.4l11.7-29.6z"/>
				<path class="s0" d="m358.7 143.1l-34.4-49.8-0.1-0.1h-3.7v54.6h3.2v-50.1l34.3 50 0.1 0.1h3.7v-54.6h-3.1z"/>
				<path class="s0" d="m372.1 96.4h20.5v51.4h3.2v-51.7-2.9h-23.7z"/>
				<path class="s0" d="m406.1 147.8h37.1v-3.3h-33.9v-23.4l28.5-0.1v-3.2h-28.5v-21.4h33.9v-3.2h-37.1z"/>
				<path class="s0" d="m496 128.7c-1 5.2-3.3 9.2-7.1 12-3.3 2.6-7.4 3.9-12 3.9-6.1 0-11-2.2-14.8-6.9-3.7-4.4-5.5-10.1-5.5-16.8 0-6.9 1.9-12.8 5.5-17.4q5.9-7.2 15.6-7.2c4.4 0 8.3 1.3 11.6 3.8 3.6 2.6 5.6 6 6 10.1l0.1 0.6h3.1l-0.2-0.8c-0.8-5.4-3.2-9.4-7.2-12.4-3.9-3-8.3-4.4-13.4-4.4-7.4 0-13.5 2.8-18 8.3-4.1 5.3-6.2 11.8-6.2 19.4 0 7.6 2 13.9 6.2 18.9 4.2 5.3 10.1 8 17.2 8 5.3 0 10.1-1.6 14-4.6 4.6-3.6 7.3-8.3 8.1-14.2l0.2-0.9h-3.1z"/>
				<path class="s0" d="m547.3 93.2v24.6h-34.6v-24.6h-3.3v54.6h3.3v-26.8l34.6 0.1v26.7h3.2v-54.6z"/>
			</g>
			<path class="s0" d="m576.5 179.9h-556v-118.8h556zm-553.5-2.4h551v-113.8h-551z"/>
		</g>
	</g>
</svg>